<svg xmlns="http://www.w3.org/2000/svg" xmlns:xlink="http://www.w3.org/1999/xlink" width="500" zoomAndPan="magnify" viewBox="0 0 375 374.999991" height="500" preserveAspectRatio="xMidYMid meet" version="1.0"><defs><g/></defs><g fill="#6e008d" fill-opacity="1"><g transform="translate(81.071415, 66.733598)"><g><path d="M -11.3125 -19.578125 L -4.984375 -24.515625 C -3.898438 -25.367188 -2.796875 -25.957031 -1.671875 -26.28125 C -0.546875 -26.613281 0.515625 -26.640625 1.515625 -26.359375 C 2.523438 -26.085938 3.40625 -25.472656 4.15625 -24.515625 C 4.3125 -24.316406 4.492188 -24.03125 4.703125 -23.65625 C 4.921875 -23.28125 5.09375 -22.828125 5.21875 -22.296875 C 5.351562 -21.773438 5.390625 -21.179688 5.328125 -20.515625 C 5.265625 -19.847656 5.035156 -19.132812 4.640625 -18.375 C 5.679688 -18.84375 6.648438 -19.015625 7.546875 -18.890625 C 8.453125 -18.765625 9.242188 -18.492188 9.921875 -18.078125 C 10.609375 -17.660156 11.128906 -17.226562 11.484375 -16.78125 C 12.359375 -15.644531 12.785156 -14.492188 12.765625 -13.328125 C 12.753906 -12.160156 12.40625 -11.035156 11.71875 -9.953125 C 11.03125 -8.878906 10.128906 -7.90625 9.015625 -7.03125 L 2.46875 -1.921875 Z M -3.375 -13.140625 L 0.84375 -16.4375 C 1.820312 -17.195312 2.5 -17.957031 2.875 -18.71875 C 3.25 -19.488281 3.382812 -20.226562 3.28125 -20.9375 C 3.175781 -21.644531 2.898438 -22.28125 2.453125 -22.84375 C 1.890625 -23.570312 1.25 -24.003906 0.53125 -24.140625 C -0.175781 -24.273438 -0.90625 -24.203125 -1.65625 -23.921875 C -2.414062 -23.640625 -3.132812 -23.234375 -3.8125 -22.703125 L -8.171875 -19.3125 Z M 2.96875 -5.03125 L 7.75 -8.765625 C 8.238281 -9.140625 8.691406 -9.570312 9.109375 -10.0625 C 9.523438 -10.5625 9.847656 -11.109375 10.078125 -11.703125 C 10.316406 -12.296875 10.398438 -12.90625 10.328125 -13.53125 C 10.253906 -14.164062 9.972656 -14.796875 9.484375 -15.421875 C 8.984375 -16.054688 8.429688 -16.460938 7.828125 -16.640625 C 7.234375 -16.816406 6.609375 -16.847656 5.953125 -16.734375 C 5.304688 -16.617188 4.671875 -16.394531 4.046875 -16.0625 C 3.429688 -15.738281 2.867188 -15.378906 2.359375 -14.984375 L -2.09375 -11.515625 Z M 2.96875 -5.03125 "/></g></g></g><g fill="#6e008d" fill-opacity="1"><g transform="translate(111.416464, 45.367351)"><g><path d="M 2.265625 -1.03125 L 0.078125 -0.03125 L -0.421875 -24.4375 L 2 -25.546875 L 20.109375 -9.15625 L 17.828125 -8.125 L 13.25 -12.328125 L 2.125 -7.25 Z M 11.515625 -13.90625 L 1.765625 -22.75 L 2.046875 -9.59375 Z M 11.515625 -13.90625 "/></g></g></g><g fill="#6e008d" fill-opacity="1"><g transform="translate(147.136895, 31.36202)"><g><path d="M 9.015625 -1.59375 C 7.085938 -1.195312 5.398438 -1.347656 3.953125 -2.046875 C 2.515625 -2.753906 1.304688 -3.875 0.328125 -5.40625 L 2.109375 -6.859375 C 2.890625 -5.679688 3.785156 -4.789062 4.796875 -4.1875 C 5.816406 -3.59375 7.078125 -3.445312 8.578125 -3.75 C 9.429688 -3.925781 10.179688 -4.25 10.828125 -4.71875 C 11.472656 -5.1875 11.953125 -5.75 12.265625 -6.40625 C 12.585938 -7.0625 12.671875 -7.769531 12.515625 -8.53125 C 12.273438 -9.695312 11.640625 -10.53125 10.609375 -11.03125 C 9.578125 -11.53125 8.210938 -11.8125 6.515625 -11.875 C 4.140625 -11.957031 2.320312 -12.382812 1.0625 -13.15625 C -0.195312 -13.925781 -0.984375 -15.078125 -1.296875 -16.609375 C -1.546875 -17.859375 -1.441406 -19 -0.984375 -20.03125 C -0.523438 -21.070312 0.175781 -21.9375 1.125 -22.625 C 2.082031 -23.3125 3.164062 -23.773438 4.375 -24.015625 C 6.21875 -24.390625 7.800781 -24.257812 9.125 -23.625 C 10.445312 -22.988281 11.484375 -22.070312 12.234375 -20.875 L 10.5 -19.359375 C 10.132812 -19.941406 9.691406 -20.453125 9.171875 -20.890625 C 8.648438 -21.335938 8.023438 -21.660156 7.296875 -21.859375 C 6.578125 -22.054688 5.734375 -22.054688 4.765625 -21.859375 C 3.984375 -21.691406 3.273438 -21.390625 2.640625 -20.953125 C 2.015625 -20.515625 1.539062 -19.96875 1.21875 -19.3125 C 0.90625 -18.664062 0.828125 -17.957031 0.984375 -17.1875 C 1.179688 -16.195312 1.710938 -15.476562 2.578125 -15.03125 C 3.441406 -14.582031 4.738281 -14.316406 6.46875 -14.234375 C 7.707031 -14.171875 8.847656 -14.007812 9.890625 -13.75 C 10.941406 -13.5 11.828125 -13.109375 12.546875 -12.578125 C 13.117188 -12.171875 13.601562 -11.6875 14 -11.125 C 14.394531 -10.5625 14.671875 -9.910156 14.828125 -9.171875 C 15.046875 -8.109375 14.960938 -7.050781 14.578125 -6 C 14.203125 -4.957031 13.550781 -4.035156 12.625 -3.234375 C 11.695312 -2.441406 10.492188 -1.894531 9.015625 -1.59375 Z M 9.015625 -1.59375 "/></g></g></g><g fill="#6e008d" fill-opacity="1"><g transform="translate(181.000062, 26.181645)"><g><path d="M 5.84375 -22.3125 L 5.671875 -12.40625 L 5.8125 -12.40625 L 16.03125 -22.140625 L 19.3125 -22.09375 L 8.140625 -11.546875 L 19.453125 0.328125 L 16.140625 0.265625 L 5.8125 -10.6875 L 5.640625 -10.6875 L 5.46875 0.09375 L 3.125 0.046875 L 3.5 -22.359375 Z M 5.84375 -22.3125 "/></g></g></g><g fill="#6e008d" fill-opacity="1"><g transform="translate(216.5443, 28.588241)"><g><path d="M 21.421875 -15.640625 L 10.078125 -18.390625 L 8.25 -10.84375 L 18.625 -8.328125 L 18.109375 -6.203125 L 7.734375 -8.71875 L 5.828125 -0.828125 L 17.28125 1.953125 L 16.765625 4.0625 L 3.03125 0.734375 L 8.296875 -21.046875 L 21.921875 -17.75 Z M 21.421875 -15.640625 "/></g></g></g><g fill="#6e008d" fill-opacity="1"><g transform="translate(250.35952, 38.629336)"><g><path d="M 16.171875 -14.578125 L 9.4375 -17.875 L 10.40625 -19.84375 L 25.984375 -12.203125 L 25.015625 -10.234375 L 18.296875 -13.53125 L 9.390625 4.609375 L 7.265625 3.5625 Z M 16.171875 -14.578125 "/></g></g></g><g fill="#6e008d" fill-opacity="1"><g transform="translate(280.8106, 55.566216)"><g><path d="M 7.03125 5.890625 C 5.488281 4.660156 4.519531 3.265625 4.125 1.703125 C 3.726562 0.148438 3.800781 -1.488281 4.34375 -3.21875 L 6.609375 -2.78125 C 6.210938 -1.4375 6.109375 -0.1875 6.296875 0.96875 C 6.492188 2.132812 7.191406 3.195312 8.390625 4.15625 C 9.066406 4.695312 9.789062 5.0625 10.5625 5.25 C 11.34375 5.445312 12.085938 5.457031 12.796875 5.28125 C 13.503906 5.101562 14.097656 4.707031 14.578125 4.09375 C 15.316406 3.164062 15.550781 2.144531 15.28125 1.03125 C 15.007812 -0.0703125 14.335938 -1.296875 13.265625 -2.640625 C 11.804688 -4.503906 10.96875 -6.164062 10.75 -7.625 C 10.539062 -9.09375 10.921875 -10.4375 11.890625 -11.65625 C 12.691406 -12.65625 13.632812 -13.304688 14.71875 -13.609375 C 15.800781 -13.921875 16.910156 -13.9375 18.046875 -13.65625 C 19.179688 -13.375 20.238281 -12.847656 21.21875 -12.078125 C 22.675781 -10.910156 23.59375 -9.613281 23.96875 -8.1875 C 24.34375 -6.769531 24.304688 -5.382812 23.859375 -4.03125 L 21.578125 -4.390625 C 21.785156 -5.046875 21.894531 -5.71875 21.90625 -6.40625 C 21.914062 -7.09375 21.765625 -7.773438 21.453125 -8.453125 C 21.140625 -9.128906 20.59375 -9.773438 19.8125 -10.390625 C 19.1875 -10.890625 18.5 -11.238281 17.75 -11.4375 C 17 -11.632812 16.273438 -11.644531 15.578125 -11.46875 C 14.890625 -11.300781 14.300781 -10.910156 13.8125 -10.296875 C 13.1875 -9.515625 12.976562 -8.644531 13.1875 -7.6875 C 13.394531 -6.726562 14.015625 -5.554688 15.046875 -4.171875 C 15.796875 -3.203125 16.410156 -2.234375 16.890625 -1.265625 C 17.378906 -0.296875 17.648438 0.632812 17.703125 1.53125 C 17.753906 2.238281 17.691406 2.921875 17.515625 3.578125 C 17.347656 4.242188 17.03125 4.875 16.5625 5.46875 C 15.882812 6.3125 15.023438 6.925781 13.984375 7.3125 C 12.941406 7.695312 11.816406 7.789062 10.609375 7.59375 C 9.398438 7.394531 8.207031 6.828125 7.03125 5.890625 Z M 7.03125 5.890625 "/></g></g></g><g fill="#6e008d" fill-opacity="1"><g transform="translate(107.435111, 348.917561)"><g><path d="M 11.53125 -19.46875 L 18.9375 -16.359375 C 20.195312 -15.828125 21.242188 -15.148438 22.078125 -14.328125 C 22.921875 -13.515625 23.46875 -12.601562 23.71875 -11.59375 C 23.976562 -10.582031 23.875 -9.515625 23.40625 -8.390625 C 23.3125 -8.160156 23.148438 -7.859375 22.921875 -7.484375 C 22.703125 -7.109375 22.394531 -6.734375 22 -6.359375 C 21.613281 -5.984375 21.113281 -5.660156 20.5 -5.390625 C 19.882812 -5.117188 19.15625 -4.972656 18.3125 -4.953125 C 19.21875 -4.265625 19.835938 -3.5 20.171875 -2.65625 C 20.503906 -1.8125 20.65625 -0.988281 20.625 -0.1875 C 20.59375 0.613281 20.46875 1.28125 20.25 1.8125 C 19.695312 3.132812 18.90625 4.066406 17.875 4.609375 C 16.851562 5.160156 15.703125 5.398438 14.421875 5.328125 C 13.148438 5.265625 11.859375 4.960938 10.546875 4.421875 L 2.890625 1.203125 Z M 9.8125 -9.375 L 14.75 -7.3125 C 15.882812 -6.832031 16.878906 -6.617188 17.734375 -6.671875 C 18.585938 -6.722656 19.296875 -6.96875 19.859375 -7.40625 C 20.429688 -7.84375 20.859375 -8.390625 21.140625 -9.046875 C 21.492188 -9.890625 21.550781 -10.65625 21.3125 -11.34375 C 21.082031 -12.03125 20.65625 -12.632812 20.03125 -13.15625 C 19.414062 -13.6875 18.710938 -14.117188 17.921875 -14.453125 L 12.828125 -16.59375 Z M 5.84375 0.125 L 11.4375 2.46875 C 12 2.707031 12.597656 2.882812 13.234375 3 C 13.878906 3.125 14.515625 3.140625 15.140625 3.046875 C 15.773438 2.953125 16.347656 2.722656 16.859375 2.359375 C 17.378906 1.992188 17.789062 1.441406 18.09375 0.703125 C 18.40625 -0.0351562 18.488281 -0.707031 18.34375 -1.3125 C 18.207031 -1.925781 17.925781 -2.484375 17.5 -2.984375 C 17.082031 -3.492188 16.578125 -3.941406 15.984375 -4.328125 C 15.398438 -4.710938 14.8125 -5.03125 14.21875 -5.28125 L 9.015625 -7.46875 Z M 5.84375 0.125 "/></g></g></g><g fill="#6e008d" fill-opacity="1"><g transform="translate(146.350887, 362.538031)"><g><path d="M 5.78125 -1.203125 L 16.21875 0.65625 L 15.828125 2.828125 L 3.078125 0.546875 L 7.03125 -21.515625 L 9.34375 -21.09375 Z M 5.78125 -1.203125 "/></g></g></g><g fill="#6e008d" fill-opacity="1"><g transform="translate(182.697995, 366.831372)"><g><path d="M 5.46875 -0.03125 L 3.125 -0.015625 L 3.015625 -22.421875 L 5.359375 -22.4375 Z M 5.46875 -0.03125 "/></g></g></g><g fill="#6e008d" fill-opacity="1"><g transform="translate(211.235353, 365.262209)"><g><path d="M 9.03125 -1.5 C 7.101562 -1.125 5.414062 -1.296875 3.96875 -2.015625 C 2.53125 -2.734375 1.332031 -3.863281 0.375 -5.40625 L 2.171875 -6.84375 C 2.941406 -5.664062 3.832031 -4.769531 4.84375 -4.15625 C 5.851562 -3.539062 7.109375 -3.378906 8.609375 -3.671875 C 9.472656 -3.835938 10.226562 -4.148438 10.875 -4.609375 C 11.519531 -5.078125 12.003906 -5.632812 12.328125 -6.28125 C 12.660156 -6.9375 12.753906 -7.644531 12.609375 -8.40625 C 12.378906 -9.570312 11.753906 -10.410156 10.734375 -10.921875 C 9.710938 -11.441406 8.34375 -11.734375 6.625 -11.796875 C 4.257812 -11.898438 2.453125 -12.34375 1.203125 -13.125 C -0.046875 -13.914062 -0.816406 -15.082031 -1.109375 -16.625 C -1.347656 -17.875 -1.234375 -19.007812 -0.765625 -20.03125 C -0.304688 -21.0625 0.398438 -21.914062 1.359375 -22.59375 C 2.316406 -23.28125 3.398438 -23.742188 4.609375 -23.984375 C 6.453125 -24.335938 8.035156 -24.191406 9.359375 -23.546875 C 10.679688 -22.898438 11.710938 -21.96875 12.453125 -20.75 L 10.6875 -19.25 C 10.332031 -19.832031 9.894531 -20.347656 9.375 -20.796875 C 8.851562 -21.242188 8.234375 -21.566406 7.515625 -21.765625 C 6.804688 -21.972656 5.960938 -21.984375 4.984375 -21.796875 C 4.203125 -21.640625 3.488281 -21.347656 2.84375 -20.921875 C 2.207031 -20.492188 1.726562 -19.957031 1.40625 -19.3125 C 1.09375 -18.664062 1.007812 -17.960938 1.15625 -17.203125 C 1.351562 -16.203125 1.878906 -15.46875 2.734375 -15 C 3.585938 -14.539062 4.878906 -14.257812 6.609375 -14.15625 C 7.847656 -14.09375 8.988281 -13.925781 10.03125 -13.65625 C 11.070312 -13.382812 11.957031 -12.984375 12.6875 -12.453125 C 13.25 -12.035156 13.722656 -11.546875 14.109375 -10.984375 C 14.503906 -10.421875 14.773438 -9.769531 14.921875 -9.03125 C 15.117188 -7.96875 15.023438 -6.910156 14.640625 -5.859375 C 14.253906 -4.816406 13.59375 -3.898438 12.65625 -3.109375 C 11.726562 -2.328125 10.519531 -1.789062 9.03125 -1.5 Z M 9.03125 -1.5 "/></g></g></g><g fill="#6e008d" fill-opacity="1"><g transform="translate(248.262633, 355.889888)"><g><path d="M 8.515625 -3.390625 C 6.703125 -2.609375 5.015625 -2.414062 3.453125 -2.8125 C 1.898438 -3.207031 0.492188 -4.054688 -0.765625 -5.359375 L 0.671875 -7.140625 C 1.671875 -6.148438 2.726562 -5.460938 3.84375 -5.078125 C 4.957031 -4.703125 6.222656 -4.816406 7.640625 -5.421875 C 8.441406 -5.765625 9.113281 -6.226562 9.65625 -6.8125 C 10.195312 -7.40625 10.554688 -8.050781 10.734375 -8.75 C 10.910156 -9.457031 10.84375 -10.171875 10.53125 -10.890625 C 10.0625 -11.972656 9.269531 -12.660156 8.15625 -12.953125 C 7.050781 -13.242188 5.660156 -13.238281 3.984375 -12.9375 C 1.648438 -12.539062 -0.210938 -12.59375 -1.609375 -13.09375 C -3.003906 -13.59375 -4.007812 -14.5625 -4.625 -16 C -5.125 -17.175781 -5.253906 -18.316406 -5.015625 -19.421875 C -4.773438 -20.523438 -4.253906 -21.507812 -3.453125 -22.375 C -2.660156 -23.238281 -1.695312 -23.914062 -0.5625 -24.40625 C 1.15625 -25.144531 2.726562 -25.335938 4.15625 -24.984375 C 5.582031 -24.628906 6.785156 -23.941406 7.765625 -22.921875 L 6.359375 -21.09375 C 5.890625 -21.582031 5.351562 -21.988281 4.75 -22.3125 C 4.144531 -22.644531 3.46875 -22.832031 2.71875 -22.875 C 1.976562 -22.925781 1.15625 -22.753906 0.25 -22.359375 C -0.488281 -22.046875 -1.125 -21.609375 -1.65625 -21.046875 C -2.1875 -20.492188 -2.539062 -19.867188 -2.71875 -19.171875 C -2.894531 -18.472656 -2.828125 -17.765625 -2.515625 -17.046875 C -2.117188 -16.117188 -1.453125 -15.519531 -0.515625 -15.25 C 0.421875 -14.976562 1.742188 -14.976562 3.453125 -15.25 C 4.679688 -15.4375 5.832031 -15.507812 6.90625 -15.46875 C 7.976562 -15.4375 8.925781 -15.234375 9.75 -14.859375 C 10.394531 -14.578125 10.96875 -14.203125 11.46875 -13.734375 C 11.96875 -13.265625 12.363281 -12.6875 12.65625 -12 C 13.082031 -11 13.21875 -9.945312 13.0625 -8.84375 C 12.90625 -7.738281 12.453125 -6.703125 11.703125 -5.734375 C 10.960938 -4.765625 9.898438 -3.984375 8.515625 -3.390625 Z M 8.515625 -3.390625 "/></g></g></g><g fill="#6e008d" fill-opacity="1"><g transform="translate(211.059122, 226.114127)"><g><path d="M 4.15625 0.125 C 1.78125 -1.0625 0.414062 -2.921875 0.0625 -5.453125 C -0.289062 -7.984375 0.0820312 -10.929688 1.1875 -14.296875 C 2.289062 -17.660156 3.867188 -21.203125 5.921875 -24.921875 C 7.984375 -28.640625 10.242188 -32.238281 12.703125 -35.71875 C 17.679688 -42.601562 23.15625 -48.992188 29.125 -54.890625 C 35.101562 -60.785156 41.21875 -65.910156 47.46875 -70.265625 C 48.257812 -75.960938 48.003906 -80.847656 46.703125 -84.921875 C 45.398438 -88.992188 42.890625 -91.382812 39.171875 -92.09375 C 36.472656 -92.570312 34.15625 -92.253906 32.21875 -91.140625 C 30.28125 -90.035156 28.578125 -88.375 27.109375 -86.15625 C 25.648438 -83.945312 24.347656 -81.492188 23.203125 -78.796875 C 22.054688 -76.109375 20.929688 -73.460938 19.828125 -70.859375 C 19.109375 -69.191406 18.132812 -68.117188 16.90625 -67.640625 C 15.6875 -67.171875 14.5 -67.15625 13.34375 -67.59375 C 12.195312 -68.03125 11.40625 -68.84375 10.96875 -70.03125 C 10.539062 -71.21875 10.757812 -72.640625 11.625 -74.296875 C 13.53125 -78.015625 16.003906 -81.457031 19.046875 -84.625 C 22.097656 -87.789062 25.441406 -90.300781 29.078125 -92.15625 C 32.710938 -94.019531 36.3125 -94.710938 39.875 -94.234375 C 44.3125 -93.679688 47.710938 -91.644531 50.078125 -88.125 C 52.453125 -84.601562 53.441406 -79.875 53.046875 -73.9375 C 60.410156 -78.601562 67.351562 -81.945312 73.875 -83.96875 C 80.40625 -85.988281 86.101562 -86.382812 90.96875 -85.15625 C 95.832031 -83.925781 99.414062 -80.78125 101.71875 -75.71875 C 103.0625 -72.789062 103.472656 -69.863281 102.953125 -66.9375 C 102.441406 -64.007812 101.253906 -61.160156 99.390625 -58.390625 C 97.535156 -55.617188 95.222656 -53.003906 92.453125 -50.546875 C 89.679688 -48.097656 86.71875 -45.847656 83.5625 -43.796875 C 86.007812 -41.734375 88.0625 -39.0625 89.71875 -35.78125 C 91.382812 -32.5 92.351562 -28.878906 92.625 -24.921875 C 92.90625 -20.960938 92.273438 -16.96875 90.734375 -12.9375 C 89.191406 -8.90625 86.441406 -5.109375 82.484375 -1.546875 C 79.484375 1.148438 75.84375 3.285156 71.5625 4.859375 C 67.289062 6.441406 62.898438 7.390625 58.390625 7.703125 C 53.878906 8.023438 49.644531 7.710938 45.6875 6.765625 C 41.738281 5.816406 38.5 4.132812 35.96875 1.71875 C 33.4375 -0.695312 32.085938 -3.84375 31.921875 -7.71875 C 31.847656 -10.644531 32.519531 -13.132812 33.9375 -15.1875 C 35.363281 -17.25 37.265625 -18.929688 39.640625 -20.234375 C 42.015625 -21.535156 44.503906 -22.441406 47.109375 -22.953125 C 49.722656 -23.472656 52.179688 -23.613281 54.484375 -23.375 C 56.296875 -23.21875 57.554688 -22.664062 58.265625 -21.71875 C 58.984375 -20.769531 59.222656 -19.738281 58.984375 -18.625 C 58.742188 -17.519531 58.1875 -16.609375 57.3125 -15.890625 C 56.445312 -15.179688 55.34375 -14.945312 54 -15.1875 C 51.46875 -15.664062 48.914062 -15.863281 46.34375 -15.78125 C 43.769531 -15.707031 41.492188 -15.3125 39.515625 -14.59375 C 37.546875 -13.882812 36.125 -12.773438 35.25 -11.265625 C 34.375 -9.765625 34.296875 -7.867188 35.015625 -5.578125 C 36.046875 -2.492188 37.742188 -0.203125 40.109375 1.296875 C 42.484375 2.804688 45.273438 3.617188 48.484375 3.734375 C 51.691406 3.859375 55.054688 3.382812 58.578125 2.3125 C 62.097656 1.25 65.578125 -0.289062 69.015625 -2.3125 C 72.453125 -4.332031 75.519531 -6.726562 78.21875 -9.5 C 81.78125 -13.132812 84.410156 -17.242188 86.109375 -21.828125 C 87.804688 -26.421875 87.785156 -31.132812 86.046875 -35.96875 C 85.179688 -38.5 83.675781 -40.671875 81.53125 -42.484375 C 81.457031 -42.410156 81.378906 -42.351562 81.296875 -42.3125 C 81.222656 -42.269531 81.144531 -42.210938 81.0625 -42.140625 C 77.894531 -40.234375 74.648438 -38.828125 71.328125 -37.921875 C 68.003906 -37.015625 64.9375 -36.617188 62.125 -36.734375 C 59.320312 -36.847656 57.085938 -37.5 55.421875 -38.6875 C 53.765625 -39.875 53.015625 -41.535156 53.171875 -43.671875 C 53.410156 -45.972656 54.476562 -47.695312 56.375 -48.84375 C 58.269531 -49.988281 60.679688 -50.617188 63.609375 -50.734375 C 66.546875 -50.859375 69.613281 -50.441406 72.8125 -49.484375 C 76.019531 -48.535156 79.007812 -47.113281 81.78125 -45.21875 C 84.707031 -47.351562 87.195312 -49.863281 89.25 -52.75 C 91.3125 -55.644531 92.675781 -58.691406 93.34375 -61.890625 C 94.019531 -65.097656 93.722656 -68.164062 92.453125 -71.09375 C 90.003906 -76.875 85.394531 -79.742188 78.625 -79.703125 C 71.863281 -79.660156 63.335938 -76.59375 53.046875 -70.5 L 52.703125 -70.265625 C 52.140625 -66.617188 51.109375 -62.679688 49.609375 -58.453125 C 48.109375 -54.222656 46.09375 -49.691406 43.5625 -44.859375 C 41.1875 -40.273438 38.648438 -35.628906 35.953125 -30.921875 C 33.265625 -26.210938 30.535156 -21.78125 27.765625 -17.625 C 25.003906 -13.46875 22.238281 -9.847656 19.46875 -6.765625 C 16.695312 -3.679688 14.023438 -1.484375 11.453125 -0.171875 C 8.878906 1.128906 6.445312 1.226562 4.15625 0.125 Z M 11.875 -9.375 C 14.320312 -8.1875 17.898438 -10.71875 22.609375 -16.96875 C 27.316406 -23.21875 32.875 -32.632812 39.28125 -45.21875 C 42.925781 -52.414062 45.421875 -59.421875 46.765625 -66.234375 C 42.171875 -62.742188 37.816406 -58.664062 33.703125 -54 C 29.585938 -49.332031 25.867188 -44.546875 22.546875 -39.640625 C 19.222656 -34.734375 16.515625 -30.125 14.421875 -25.8125 C 12.328125 -21.5 11 -17.859375 10.4375 -14.890625 C 9.882812 -11.921875 10.363281 -10.082031 11.875 -9.375 Z M 63.375 -44.390625 C 63.375 -43.285156 64.164062 -42.375 65.75 -41.65625 C 67.332031 -40.945312 69.367188 -40.707031 71.859375 -40.9375 C 74.359375 -41.175781 76.953125 -42.128906 79.640625 -43.796875 L 79.765625 -43.921875 C 77.460938 -45.578125 75.046875 -46.703125 72.515625 -47.296875 C 69.984375 -47.890625 67.828125 -47.945312 66.046875 -47.46875 C 64.265625 -47 63.375 -45.972656 63.375 -44.390625 Z M 63.375 -44.390625 "/></g></g></g><g fill="#6e008d" fill-opacity="1"><g transform="translate(65.537679, 226.114127)"><g><path d="M 4.15625 0.125 C 1.78125 -1.0625 0.414062 -2.921875 0.0625 -5.453125 C -0.289062 -7.984375 0.0820312 -10.929688 1.1875 -14.296875 C 2.289062 -17.660156 3.867188 -21.203125 5.921875 -24.921875 C 7.984375 -28.640625 10.242188 -32.238281 12.703125 -35.71875 C 17.679688 -42.601562 23.15625 -48.992188 29.125 -54.890625 C 35.101562 -60.785156 41.21875 -65.910156 47.46875 -70.265625 C 48.257812 -75.960938 48.003906 -80.847656 46.703125 -84.921875 C 45.398438 -88.992188 42.890625 -91.382812 39.171875 -92.09375 C 36.472656 -92.570312 34.15625 -92.253906 32.21875 -91.140625 C 30.28125 -90.035156 28.578125 -88.375 27.109375 -86.15625 C 25.648438 -83.945312 24.347656 -81.492188 23.203125 -78.796875 C 22.054688 -76.109375 20.929688 -73.460938 19.828125 -70.859375 C 19.109375 -69.191406 18.132812 -68.117188 16.90625 -67.640625 C 15.6875 -67.171875 14.5 -67.15625 13.34375 -67.59375 C 12.195312 -68.03125 11.40625 -68.84375 10.96875 -70.03125 C 10.539062 -71.21875 10.757812 -72.640625 11.625 -74.296875 C 13.53125 -78.015625 16.003906 -81.457031 19.046875 -84.625 C 22.097656 -87.789062 25.441406 -90.300781 29.078125 -92.15625 C 32.710938 -94.019531 36.3125 -94.710938 39.875 -94.234375 C 44.3125 -93.679688 47.710938 -91.644531 50.078125 -88.125 C 52.453125 -84.601562 53.441406 -79.875 53.046875 -73.9375 C 60.410156 -78.601562 67.351562 -81.945312 73.875 -83.96875 C 80.40625 -85.988281 86.101562 -86.382812 90.96875 -85.15625 C 95.832031 -83.925781 99.414062 -80.78125 101.71875 -75.71875 C 103.0625 -72.789062 103.472656 -69.863281 102.953125 -66.9375 C 102.441406 -64.007812 101.253906 -61.160156 99.390625 -58.390625 C 97.535156 -55.617188 95.222656 -53.003906 92.453125 -50.546875 C 89.679688 -48.097656 86.71875 -45.847656 83.5625 -43.796875 C 86.007812 -41.734375 88.0625 -39.0625 89.71875 -35.78125 C 91.382812 -32.5 92.351562 -28.878906 92.625 -24.921875 C 92.90625 -20.960938 92.273438 -16.96875 90.734375 -12.9375 C 89.191406 -8.90625 86.441406 -5.109375 82.484375 -1.546875 C 79.484375 1.148438 75.84375 3.285156 71.5625 4.859375 C 67.289062 6.441406 62.898438 7.390625 58.390625 7.703125 C 53.878906 8.023438 49.644531 7.710938 45.6875 6.765625 C 41.738281 5.816406 38.5 4.132812 35.96875 1.71875 C 33.4375 -0.695312 32.085938 -3.84375 31.921875 -7.71875 C 31.847656 -10.644531 32.519531 -13.132812 33.9375 -15.1875 C 35.363281 -17.25 37.265625 -18.929688 39.640625 -20.234375 C 42.015625 -21.535156 44.503906 -22.441406 47.109375 -22.953125 C 49.722656 -23.472656 52.179688 -23.613281 54.484375 -23.375 C 56.296875 -23.21875 57.554688 -22.664062 58.265625 -21.71875 C 58.984375 -20.769531 59.222656 -19.738281 58.984375 -18.625 C 58.742188 -17.519531 58.1875 -16.609375 57.3125 -15.890625 C 56.445312 -15.179688 55.34375 -14.945312 54 -15.1875 C 51.46875 -15.664062 48.914062 -15.863281 46.34375 -15.78125 C 43.769531 -15.707031 41.492188 -15.3125 39.515625 -14.59375 C 37.546875 -13.882812 36.125 -12.773438 35.25 -11.265625 C 34.375 -9.765625 34.296875 -7.867188 35.015625 -5.578125 C 36.046875 -2.492188 37.742188 -0.203125 40.109375 1.296875 C 42.484375 2.804688 45.273438 3.617188 48.484375 3.734375 C 51.691406 3.859375 55.054688 3.382812 58.578125 2.3125 C 62.097656 1.25 65.578125 -0.289062 69.015625 -2.3125 C 72.453125 -4.332031 75.519531 -6.726562 78.21875 -9.5 C 81.78125 -13.132812 84.410156 -17.242188 86.109375 -21.828125 C 87.804688 -26.421875 87.785156 -31.132812 86.046875 -35.96875 C 85.179688 -38.5 83.675781 -40.671875 81.53125 -42.484375 C 81.457031 -42.410156 81.378906 -42.351562 81.296875 -42.3125 C 81.222656 -42.269531 81.144531 -42.210938 81.0625 -42.140625 C 77.894531 -40.234375 74.648438 -38.828125 71.328125 -37.921875 C 68.003906 -37.015625 64.9375 -36.617188 62.125 -36.734375 C 59.320312 -36.847656 57.085938 -37.5 55.421875 -38.6875 C 53.765625 -39.875 53.015625 -41.535156 53.171875 -43.671875 C 53.410156 -45.972656 54.476562 -47.695312 56.375 -48.84375 C 58.269531 -49.988281 60.679688 -50.617188 63.609375 -50.734375 C 66.546875 -50.859375 69.613281 -50.441406 72.8125 -49.484375 C 76.019531 -48.535156 79.007812 -47.113281 81.78125 -45.21875 C 84.707031 -47.351562 87.195312 -49.863281 89.25 -52.75 C 91.3125 -55.644531 92.675781 -58.691406 93.34375 -61.890625 C 94.019531 -65.097656 93.722656 -68.164062 92.453125 -71.09375 C 90.003906 -76.875 85.394531 -79.742188 78.625 -79.703125 C 71.863281 -79.660156 63.335938 -76.59375 53.046875 -70.5 L 52.703125 -70.265625 C 52.140625 -66.617188 51.109375 -62.679688 49.609375 -58.453125 C 48.109375 -54.222656 46.09375 -49.691406 43.5625 -44.859375 C 41.1875 -40.273438 38.648438 -35.628906 35.953125 -30.921875 C 33.265625 -26.210938 30.535156 -21.78125 27.765625 -17.625 C 25.003906 -13.46875 22.238281 -9.847656 19.46875 -6.765625 C 16.695312 -3.679688 14.023438 -1.484375 11.453125 -0.171875 C 8.878906 1.128906 6.445312 1.226562 4.15625 0.125 Z M 11.875 -9.375 C 14.320312 -8.1875 17.898438 -10.71875 22.609375 -16.96875 C 27.316406 -23.21875 32.875 -32.632812 39.28125 -45.21875 C 42.925781 -52.414062 45.421875 -59.421875 46.765625 -66.234375 C 42.171875 -62.742188 37.816406 -58.664062 33.703125 -54 C 29.585938 -49.332031 25.867188 -44.546875 22.546875 -39.640625 C 19.222656 -34.734375 16.515625 -30.125 14.421875 -25.8125 C 12.328125 -21.5 11 -17.859375 10.4375 -14.890625 C 9.882812 -11.921875 10.363281 -10.082031 11.875 -9.375 Z M 63.375 -44.390625 C 63.375 -43.285156 64.164062 -42.375 65.75 -41.65625 C 67.332031 -40.945312 69.367188 -40.707031 71.859375 -40.9375 C 74.359375 -41.175781 76.953125 -42.128906 79.640625 -43.796875 L 79.765625 -43.921875 C 77.460938 -45.578125 75.046875 -46.703125 72.515625 -47.296875 C 69.984375 -47.890625 67.828125 -47.945312 66.046875 -47.46875 C 64.265625 -47 63.375 -45.972656 63.375 -44.390625 Z M 63.375 -44.390625 "/></g></g></g><path stroke-linecap="butt" transform="matrix(0, -1.619832, 1.619832, 0, 185.530905, 283.202619)" fill="none" stroke-linejoin="miter" d="M -0.000312376 1.000992 L 118.149453 1.000992 " stroke="#6e008d" stroke-width="2" stroke-opacity="1" stroke-miterlimit="4"/></svg>